<svg width="437" height="437" viewBox="0 0 437 437" fill="none" xmlns="http://www.w3.org/2000/svg">
<path d="M202.998 12.1284C208.394 -2.04277 228.441 -2.04279 233.837 12.1284L283.362 142.189C285.341 147.388 289.447 151.494 294.646 153.473L424.707 202.998C438.878 208.394 438.878 228.441 424.707 233.837L294.646 283.362C289.447 285.341 285.341 289.447 283.362 294.646L233.837 424.707C228.441 438.878 208.394 438.878 202.998 424.707L153.473 294.646C151.494 289.447 147.388 285.341 142.189 283.362L12.1284 233.837C-2.04277 228.441 -2.04279 208.394 12.1284 202.998L142.189 153.473C147.388 151.494 151.494 147.388 153.473 142.189L202.998 12.1284Z" fill="#F4F428" stroke="#DE2525" stroke-width="3"/>
</svg>
